<svg width="228" height="49" viewBox="0 0 228 49" fill="none" xmlns="http://www.w3.org/2000/svg">
<path d="M7.14062 26.5703C7.14062 26.3359 7.10417 26.1276 7.03125 25.9453C6.96354 25.763 6.84115 25.5964 6.66406 25.4453C6.48698 25.2943 6.23698 25.1484 5.91406 25.0078C5.59635 24.862 5.1901 24.7135 4.69531 24.5625C4.15365 24.3958 3.65365 24.2109 3.19531 24.0078C2.74219 23.7995 2.34635 23.5599 2.00781 23.2891C1.66927 23.013 1.40625 22.6979 1.21875 22.3438C1.03125 21.9844 0.9375 21.5703 0.9375 21.1016C0.9375 20.638 1.03385 20.2161 1.22656 19.8359C1.42448 19.4557 1.70312 19.1276 2.0625 18.8516C2.42708 18.5703 2.85677 18.3542 3.35156 18.2031C3.84635 18.0469 4.39323 17.9688 4.99219 17.9688C5.83594 17.9688 6.5625 18.125 7.17188 18.4375C7.78646 18.75 8.25781 19.1693 8.58594 19.6953C8.91927 20.2214 9.08594 20.8021 9.08594 21.4375H7.14062C7.14062 21.0625 7.0599 20.7318 6.89844 20.4453C6.74219 20.1536 6.5026 19.9245 6.17969 19.7578C5.86198 19.5911 5.45833 19.5078 4.96875 19.5078C4.50521 19.5078 4.11979 19.5781 3.8125 19.7188C3.50521 19.8594 3.27604 20.0495 3.125 20.2891C2.97396 20.5286 2.89844 20.7995 2.89844 21.1016C2.89844 21.3151 2.94792 21.5104 3.04688 21.6875C3.14583 21.8594 3.29688 22.0208 3.5 22.1719C3.70312 22.3177 3.95833 22.4557 4.26562 22.5859C4.57292 22.7161 4.9349 22.8411 5.35156 22.9609C5.98177 23.1484 6.53125 23.3568 7 23.5859C7.46875 23.8099 7.85938 24.0651 8.17188 24.3516C8.48438 24.638 8.71875 24.9635 8.875 25.3281C9.03125 25.6875 9.10938 26.0964 9.10938 26.5547C9.10938 27.0339 9.01302 27.4661 8.82031 27.8516C8.6276 28.2318 8.35156 28.5573 7.99219 28.8281C7.63802 29.0938 7.21094 29.2995 6.71094 29.4453C6.21615 29.5859 5.66406 29.6562 5.05469 29.6562C4.50781 29.6562 3.96875 29.5833 3.4375 29.4375C2.91146 29.2917 2.43229 29.0703 2 28.7734C1.56771 28.4714 1.22396 28.0964 0.96875 27.6484C0.713542 27.1953 0.585938 26.6667 0.585938 26.0625H2.54688C2.54688 26.4323 2.60938 26.7474 2.73438 27.0078C2.86458 27.2682 3.04427 27.4818 3.27344 27.6484C3.5026 27.8099 3.76823 27.9297 4.07031 28.0078C4.3776 28.0859 4.70573 28.125 5.05469 28.125C5.51302 28.125 5.89583 28.0599 6.20312 27.9297C6.51562 27.7995 6.75 27.6172 6.90625 27.3828C7.0625 27.1484 7.14062 26.8776 7.14062 26.5703ZM14.8828 29.6562C14.2578 29.6562 13.6927 29.5547 13.1875 29.3516C12.6875 29.1432 12.2604 28.8542 11.9062 28.4844C11.5573 28.1146 11.2891 27.6797 11.1016 27.1797C10.9141 26.6797 10.8203 26.1406 10.8203 25.5625V25.25C10.8203 24.5885 10.9167 23.9896 11.1094 23.4531C11.3021 22.9167 11.5703 22.4583 11.9141 22.0781C12.2578 21.6927 12.6641 21.3984 13.1328 21.1953C13.6016 20.9922 14.1094 20.8906 14.6562 20.8906C15.2604 20.8906 15.7891 20.9922 16.2422 21.1953C16.6953 21.3984 17.0703 21.6849 17.3672 22.0547C17.6693 22.4193 17.8932 22.8542 18.0391 23.3594C18.1901 23.8646 18.2656 24.4219 18.2656 25.0312V25.8359H11.7344V24.4844H16.4062V24.3359C16.3958 23.9974 16.3281 23.6797 16.2031 23.3828C16.0833 23.0859 15.8984 22.8464 15.6484 22.6641C15.3984 22.4818 15.0651 22.3906 14.6484 22.3906C14.3359 22.3906 14.0573 22.4583 13.8125 22.5938C13.5729 22.724 13.3724 22.9141 13.2109 23.1641C13.0495 23.4141 12.9245 23.7161 12.8359 24.0703C12.7526 24.4193 12.7109 24.8125 12.7109 25.25V25.5625C12.7109 25.9323 12.7604 26.276 12.8594 26.5938C12.9635 26.9062 13.1146 27.1797 13.3125 27.4141C13.5104 27.6484 13.75 27.8333 14.0312 27.9688C14.3125 28.099 14.6328 28.1641 14.9922 28.1641C15.4453 28.1641 15.849 28.0729 16.2031 27.8906C16.5573 27.7083 16.8646 27.4505 17.125 27.1172L18.1172 28.0781C17.9349 28.3438 17.6979 28.599 17.4062 28.8438C17.1146 29.0833 16.7578 29.2786 16.3359 29.4297C15.9193 29.5807 15.4349 29.6562 14.8828 29.6562ZM23.9609 29.6562C23.3359 29.6562 22.7708 29.5547 22.2656 29.3516C21.7656 29.1432 21.3385 28.8542 20.9844 28.4844C20.6354 28.1146 20.3672 27.6797 20.1797 27.1797C19.9922 26.6797 19.8984 26.1406 19.8984 25.5625V25.25C19.8984 24.5885 19.9948 23.9896 20.1875 23.4531C20.3802 22.9167 20.6484 22.4583 20.9922 22.0781C21.3359 21.6927 21.7422 21.3984 22.2109 21.1953C22.6797 20.9922 23.1875 20.8906 23.7344 20.8906C24.3385 20.8906 24.8672 20.9922 25.3203 21.1953C25.7734 21.3984 26.1484 21.6849 26.4453 22.0547C26.7474 22.4193 26.9714 22.8542 27.1172 23.3594C27.2682 23.8646 27.3438 24.4219 27.3438 25.0312V25.8359H20.8125V24.4844H25.4844V24.3359C25.474 23.9974 25.4062 23.6797 25.2812 23.3828C25.1615 23.0859 24.9766 22.8464 24.7266 22.6641C24.4766 22.4818 24.1432 22.3906 23.7266 22.3906C23.4141 22.3906 23.1354 22.4583 22.8906 22.5938C22.651 22.724 22.4505 22.9141 22.2891 23.1641C22.1276 23.4141 22.0026 23.7161 21.9141 24.0703C21.8307 24.4193 21.7891 24.8125 21.7891 25.25V25.5625C21.7891 25.9323 21.8385 26.276 21.9375 26.5938C22.0417 26.9062 22.1927 27.1797 22.3906 27.4141C22.5885 27.6484 22.8281 27.8333 23.1094 27.9688C23.3906 28.099 23.7109 28.1641 24.0703 28.1641C24.5234 28.1641 24.9271 28.0729 25.2812 27.8906C25.6354 27.7083 25.9427 27.4505 26.2031 27.1172L27.1953 28.0781C27.013 28.3438 26.776 28.599 26.4844 28.8438C26.1927 29.0833 25.8359 29.2786 25.4141 29.4297C24.9974 29.5807 24.513 29.6562 23.9609 29.6562ZM35.6562 17.5V29.5H33.7812V17.5H35.6562ZM35.3281 24.9609L34.7188 24.9531C34.724 24.3698 34.8047 23.8307 34.9609 23.3359C35.1224 22.8411 35.3464 22.4115 35.6328 22.0469C35.9245 21.6771 36.2734 21.3932 36.6797 21.1953C37.0859 20.9922 37.5365 20.8906 38.0312 20.8906C38.4479 20.8906 38.8229 20.9479 39.1562 21.0625C39.4948 21.1771 39.7865 21.362 40.0312 21.6172C40.276 21.8672 40.4609 22.1953 40.5859 22.6016C40.7161 23.0026 40.7812 23.4922 40.7812 24.0703V29.5H38.8906V24.0547C38.8906 23.6484 38.8307 23.3255 38.7109 23.0859C38.5964 22.8464 38.4271 22.6745 38.2031 22.5703C37.9792 22.4609 37.7057 22.4062 37.3828 22.4062C37.0443 22.4062 36.7448 22.474 36.4844 22.6094C36.2292 22.7448 36.0156 22.9297 35.8438 23.1641C35.6719 23.3984 35.5417 23.6693 35.4531 23.9766C35.3698 24.2839 35.3281 24.612 35.3281 24.9609ZM42.8281 25.3672V25.1875C42.8281 24.5781 42.9167 24.013 43.0938 23.4922C43.2708 22.9661 43.526 22.5104 43.8594 22.125C44.1979 21.7344 44.6094 21.4323 45.0938 21.2188C45.5833 21 46.1354 20.8906 46.75 20.8906C47.3698 20.8906 47.9219 21 48.4062 21.2188C48.8958 21.4323 49.3099 21.7344 49.6484 22.125C49.987 22.5104 50.2448 22.9661 50.4219 23.4922C50.599 24.013 50.6875 24.5781 50.6875 25.1875V25.3672C50.6875 25.9766 50.599 26.5417 50.4219 27.0625C50.2448 27.5833 49.987 28.0391 49.6484 28.4297C49.3099 28.8151 48.8984 29.1172 48.4141 29.3359C47.9297 29.5495 47.3802 29.6562 46.7656 29.6562C46.1458 29.6562 45.5911 29.5495 45.1016 29.3359C44.6172 29.1172 44.2057 28.8151 43.8672 28.4297C43.5286 28.0391 43.2708 27.5833 43.0938 27.0625C42.9167 26.5417 42.8281 25.9766 42.8281 25.3672ZM44.7109 25.1875V25.3672C44.7109 25.7474 44.75 26.1068 44.8281 26.4453C44.9062 26.7839 45.0286 27.0807 45.1953 27.3359C45.362 27.5911 45.5755 27.7917 45.8359 27.9375C46.0964 28.0833 46.4062 28.1562 46.7656 28.1562C47.1146 28.1562 47.4167 28.0833 47.6719 27.9375C47.9323 27.7917 48.1458 27.5911 48.3125 27.3359C48.4792 27.0807 48.6016 26.7839 48.6797 26.4453C48.763 26.1068 48.8047 25.7474 48.8047 25.3672V25.1875C48.8047 24.8125 48.763 24.4583 48.6797 24.125C48.6016 23.7865 48.4766 23.487 48.3047 23.2266C48.138 22.9661 47.9245 22.763 47.6641 22.6172C47.4089 22.4661 47.1042 22.3906 46.75 22.3906C46.3958 22.3906 46.0885 22.4661 45.8281 22.6172C45.5729 22.763 45.362 22.9661 45.1953 23.2266C45.0286 23.487 44.9062 23.7865 44.8281 24.125C44.75 24.4583 44.7109 24.8125 44.7109 25.1875ZM55.0625 27.625L57.0156 21.0469H58.2188L57.8906 23.0156L55.9219 29.5H54.8438L55.0625 27.625ZM53.9141 21.0469L55.4375 27.6562L55.5625 29.5H54.3594L52.0703 21.0469H53.9141ZM60.0469 27.5781L61.5234 21.0469H63.3594L61.0781 29.5H59.875L60.0469 27.5781ZM58.4219 21.0469L60.3516 27.5469L60.5938 29.5H59.5156L57.5234 23.0078L57.1953 21.0469H58.4219ZM71.6406 21.0469V29.5H69.75V21.0469H71.6406ZM69.625 18.8281C69.625 18.5417 69.7188 18.3047 69.9062 18.1172C70.099 17.9245 70.3646 17.8281 70.7031 17.8281C71.0365 17.8281 71.2995 17.9245 71.4922 18.1172C71.6849 18.3047 71.7812 18.5417 71.7812 18.8281C71.7812 19.1094 71.6849 19.3438 71.4922 19.5312C71.2995 19.7188 71.0365 19.8125 70.7031 19.8125C70.3646 19.8125 70.099 19.7188 69.9062 19.5312C69.7188 19.3438 69.625 19.1094 69.625 18.8281ZM78.0781 21.0469V22.4219H73.3125V21.0469H78.0781ZM74.6875 18.9766H76.5703V27.1641C76.5703 27.4245 76.6068 27.625 76.6797 27.7656C76.7578 27.901 76.8646 27.9922 77 28.0391C77.1354 28.0859 77.2943 28.1094 77.4766 28.1094C77.6068 28.1094 77.7318 28.1016 77.8516 28.0859C77.9714 28.0703 78.0677 28.0547 78.1406 28.0391L78.1484 29.4766C77.9922 29.5234 77.8099 29.5651 77.6016 29.6016C77.3984 29.638 77.1641 29.6562 76.8984 29.6562C76.4661 29.6562 76.0833 29.5807 75.75 29.4297C75.4167 29.2734 75.1562 29.0208 74.9688 28.6719C74.7812 28.3229 74.6875 27.8594 74.6875 27.2812V18.9766ZM86.375 17.5V29.5H84.5V17.5H86.375ZM86.0469 24.9609L85.4375 24.9531C85.4427 24.3698 85.5234 23.8307 85.6797 23.3359C85.8411 22.8411 86.0651 22.4115 86.3516 22.0469C86.6432 21.6771 86.9922 21.3932 87.3984 21.1953C87.8047 20.9922 88.2552 20.8906 88.75 20.8906C89.1667 20.8906 89.5417 20.9479 89.875 21.0625C90.2135 21.1771 90.5052 21.362 90.75 21.6172C90.9948 21.8672 91.1797 22.1953 91.3047 22.6016C91.4349 23.0026 91.5 23.4922 91.5 24.0703V29.5H89.6094V24.0547C89.6094 23.6484 89.5495 23.3255 89.4297 23.0859C89.3151 22.8464 89.1458 22.6745 88.9219 22.5703C88.6979 22.4609 88.4245 22.4062 88.1016 22.4062C87.763 22.4062 87.4635 22.474 87.2031 22.6094C86.9479 22.7448 86.7344 22.9297 86.5625 23.1641C86.3906 23.3984 86.2604 23.6693 86.1719 23.9766C86.0885 24.2839 86.0469 24.612 86.0469 24.9609ZM97.6328 29.6562C97.0078 29.6562 96.4427 29.5547 95.9375 29.3516C95.4375 29.1432 95.0104 28.8542 94.6562 28.4844C94.3073 28.1146 94.0391 27.6797 93.8516 27.1797C93.6641 26.6797 93.5703 26.1406 93.5703 25.5625V25.25C93.5703 24.5885 93.6667 23.9896 93.8594 23.4531C94.0521 22.9167 94.3203 22.4583 94.6641 22.0781C95.0078 21.6927 95.4141 21.3984 95.8828 21.1953C96.3516 20.9922 96.8594 20.8906 97.4062 20.8906C98.0104 20.8906 98.5391 20.9922 98.9922 21.1953C99.4453 21.3984 99.8203 21.6849 100.117 22.0547C100.419 22.4193 100.643 22.8542 100.789 23.3594C100.94 23.8646 101.016 24.4219 101.016 25.0312V25.8359H94.4844V24.4844H99.1562V24.3359C99.1458 23.9974 99.0781 23.6797 98.9531 23.3828C98.8333 23.0859 98.6484 22.8464 98.3984 22.6641C98.1484 22.4818 97.8151 22.3906 97.3984 22.3906C97.0859 22.3906 96.8073 22.4583 96.5625 22.5938C96.3229 22.724 96.1224 22.9141 95.9609 23.1641C95.7995 23.4141 95.6745 23.7161 95.5859 24.0703C95.5026 24.4193 95.4609 24.8125 95.4609 25.25V25.5625C95.4609 25.9323 95.5104 26.276 95.6094 26.5938C95.7135 26.9062 95.8646 27.1797 96.0625 27.4141C96.2604 27.6484 96.5 27.8333 96.7812 27.9688C97.0625 28.099 97.3828 28.1641 97.7422 28.1641C98.1953 28.1641 98.599 28.0729 98.9531 27.8906C99.3073 27.7083 99.6146 27.4505 99.875 27.1172L100.867 28.0781C100.685 28.3438 100.448 28.599 100.156 28.8438C99.8646 29.0833 99.5078 29.2786 99.0859 29.4297C98.6693 29.5807 98.1849 29.6562 97.6328 29.6562ZM105 17.5V29.5H103.109V17.5H105ZM109.453 22.6719V32.75H107.57V21.0469H109.305L109.453 22.6719ZM114.961 25.1953V25.3594C114.961 25.974 114.888 26.5443 114.742 27.0703C114.602 27.5911 114.391 28.0469 114.109 28.4375C113.833 28.8229 113.492 29.1224 113.086 29.3359C112.68 29.5495 112.211 29.6562 111.68 29.6562C111.154 29.6562 110.693 29.5599 110.297 29.3672C109.906 29.1693 109.576 28.8906 109.305 28.5312C109.034 28.1719 108.815 27.75 108.648 27.2656C108.487 26.776 108.372 26.2396 108.305 25.6562V25.0234C108.372 24.4036 108.487 23.8411 108.648 23.3359C108.815 22.8307 109.034 22.3958 109.305 22.0312C109.576 21.6667 109.906 21.3854 110.297 21.1875C110.688 20.9896 111.143 20.8906 111.664 20.8906C112.195 20.8906 112.667 20.9948 113.078 21.2031C113.49 21.4062 113.836 21.6979 114.117 22.0781C114.398 22.4531 114.609 22.9062 114.75 23.4375C114.891 23.9635 114.961 24.5495 114.961 25.1953ZM113.078 25.3594V25.1953C113.078 24.8047 113.042 24.4427 112.969 24.1094C112.896 23.7708 112.781 23.474 112.625 23.2188C112.469 22.9635 112.268 22.7656 112.023 22.625C111.784 22.4792 111.495 22.4062 111.156 22.4062C110.823 22.4062 110.536 22.4635 110.297 22.5781C110.057 22.6875 109.857 22.8411 109.695 23.0391C109.534 23.237 109.409 23.4688 109.32 23.7344C109.232 23.9948 109.169 24.2786 109.133 24.5859V26.1016C109.195 26.4766 109.302 26.8203 109.453 27.1328C109.604 27.4453 109.818 27.6953 110.094 27.8828C110.375 28.0651 110.734 28.1562 111.172 28.1562C111.51 28.1562 111.799 28.0833 112.039 27.9375C112.279 27.7917 112.474 27.5911 112.625 27.3359C112.781 27.0755 112.896 26.776 112.969 26.4375C113.042 26.099 113.078 25.7396 113.078 25.3594ZM120.789 29.6562C120.164 29.6562 119.599 29.5547 119.094 29.3516C118.594 29.1432 118.167 28.8542 117.812 28.4844C117.464 28.1146 117.195 27.6797 117.008 27.1797C116.82 26.6797 116.727 26.1406 116.727 25.5625V25.25C116.727 24.5885 116.823 23.9896 117.016 23.4531C117.208 22.9167 117.477 22.4583 117.82 22.0781C118.164 21.6927 118.57 21.3984 119.039 21.1953C119.508 20.9922 120.016 20.8906 120.562 20.8906C121.167 20.8906 121.695 20.9922 122.148 21.1953C122.602 21.3984 122.977 21.6849 123.273 22.0547C123.576 22.4193 123.799 22.8542 123.945 23.3594C124.096 23.8646 124.172 24.4219 124.172 25.0312V25.8359H117.641V24.4844H122.312V24.3359C122.302 23.9974 122.234 23.6797 122.109 23.3828C121.99 23.0859 121.805 22.8464 121.555 22.6641C121.305 22.4818 120.971 22.3906 120.555 22.3906C120.242 22.3906 119.964 22.4583 119.719 22.5938C119.479 22.724 119.279 22.9141 119.117 23.1641C118.956 23.4141 118.831 23.7161 118.742 24.0703C118.659 24.4193 118.617 24.8125 118.617 25.25V25.5625C118.617 25.9323 118.667 26.276 118.766 26.5938C118.87 26.9062 119.021 27.1797 119.219 27.4141C119.417 27.6484 119.656 27.8333 119.938 27.9688C120.219 28.099 120.539 28.1641 120.898 28.1641C121.352 28.1641 121.755 28.0729 122.109 27.8906C122.464 27.7083 122.771 27.4505 123.031 27.1172L124.023 28.0781C123.841 28.3438 123.604 28.599 123.312 28.8438C123.021 29.0833 122.664 29.2786 122.242 29.4297C121.826 29.5807 121.341 29.6562 120.789 29.6562ZM131.297 27.75V17.5H133.188V29.5H131.477L131.297 27.75ZM125.797 25.3672V25.2031C125.797 24.5625 125.872 23.9792 126.023 23.4531C126.174 22.9219 126.393 22.4661 126.68 22.0859C126.966 21.7005 127.315 21.4062 127.727 21.2031C128.138 20.9948 128.602 20.8906 129.117 20.8906C129.628 20.8906 130.076 20.9896 130.461 21.1875C130.846 21.3854 131.174 21.6693 131.445 22.0391C131.716 22.4036 131.932 22.8411 132.094 23.3516C132.255 23.8568 132.37 24.4193 132.438 25.0391V25.5625C132.37 26.1667 132.255 26.7188 132.094 27.2188C131.932 27.7188 131.716 28.151 131.445 28.5156C131.174 28.8802 130.844 29.1615 130.453 29.3594C130.068 29.5573 129.617 29.6562 129.102 29.6562C128.591 29.6562 128.13 29.5495 127.719 29.3359C127.312 29.1224 126.966 28.8229 126.68 28.4375C126.393 28.0521 126.174 27.599 126.023 27.0781C125.872 26.5521 125.797 25.9818 125.797 25.3672ZM127.68 25.2031V25.3672C127.68 25.7526 127.714 26.112 127.781 26.4453C127.854 26.7786 127.966 27.0729 128.117 27.3281C128.268 27.5781 128.464 27.776 128.703 27.9219C128.948 28.0625 129.24 28.1328 129.578 28.1328C130.005 28.1328 130.357 28.0391 130.633 27.8516C130.909 27.6641 131.125 27.4115 131.281 27.0938C131.443 26.7708 131.552 26.4115 131.609 26.0156V24.6016C131.578 24.2943 131.513 24.0078 131.414 23.7422C131.32 23.4766 131.193 23.2448 131.031 23.0469C130.87 22.8438 130.669 22.6875 130.43 22.5781C130.195 22.4635 129.917 22.4062 129.594 22.4062C129.25 22.4062 128.958 22.4792 128.719 22.625C128.479 22.7708 128.281 22.9714 128.125 23.2266C127.974 23.4818 127.862 23.7786 127.789 24.1172C127.716 24.4557 127.68 24.8177 127.68 25.2031ZM139.781 25.3672V25.1875C139.781 24.5781 139.87 24.013 140.047 23.4922C140.224 22.9661 140.479 22.5104 140.812 22.125C141.151 21.7344 141.562 21.4323 142.047 21.2188C142.536 21 143.089 20.8906 143.703 20.8906C144.323 20.8906 144.875 21 145.359 21.2188C145.849 21.4323 146.263 21.7344 146.602 22.125C146.94 22.5104 147.198 22.9661 147.375 23.4922C147.552 24.013 147.641 24.5781 147.641 25.1875V25.3672C147.641 25.9766 147.552 26.5417 147.375 27.0625C147.198 27.5833 146.94 28.0391 146.602 28.4297C146.263 28.8151 145.852 29.1172 145.367 29.3359C144.883 29.5495 144.333 29.6562 143.719 29.6562C143.099 29.6562 142.544 29.5495 142.055 29.3359C141.57 29.1172 141.159 28.8151 140.82 28.4297C140.482 28.0391 140.224 27.5833 140.047 27.0625C139.87 26.5417 139.781 25.9766 139.781 25.3672ZM141.664 25.1875V25.3672C141.664 25.7474 141.703 26.1068 141.781 26.4453C141.859 26.7839 141.982 27.0807 142.148 27.3359C142.315 27.5911 142.529 27.7917 142.789 27.9375C143.049 28.0833 143.359 28.1562 143.719 28.1562C144.068 28.1562 144.37 28.0833 144.625 27.9375C144.885 27.7917 145.099 27.5911 145.266 27.3359C145.432 27.0807 145.555 26.7839 145.633 26.4453C145.716 26.1068 145.758 25.7474 145.758 25.3672V25.1875C145.758 24.8125 145.716 24.4583 145.633 24.125C145.555 23.7865 145.43 23.487 145.258 23.2266C145.091 22.9661 144.878 22.763 144.617 22.6172C144.362 22.4661 144.057 22.3906 143.703 22.3906C143.349 22.3906 143.042 22.4661 142.781 22.6172C142.526 22.763 142.315 22.9661 142.148 23.2266C141.982 23.487 141.859 23.7865 141.781 24.125C141.703 24.4583 141.664 24.8125 141.664 25.1875ZM153.594 21.0469V22.4219H148.828V21.0469H153.594ZM150.203 18.9766H152.086V27.1641C152.086 27.4245 152.122 27.625 152.195 27.7656C152.273 27.901 152.38 27.9922 152.516 28.0391C152.651 28.0859 152.81 28.1094 152.992 28.1094C153.122 28.1094 153.247 28.1016 153.367 28.0859C153.487 28.0703 153.583 28.0547 153.656 28.0391L153.664 29.4766C153.508 29.5234 153.326 29.5651 153.117 29.6016C152.914 29.638 152.68 29.6562 152.414 29.6562C151.982 29.6562 151.599 29.5807 151.266 29.4297C150.932 29.2734 150.672 29.0208 150.484 28.6719C150.297 28.3229 150.203 27.8594 150.203 27.2812V18.9766ZM157.406 17.5V29.5H155.531V17.5H157.406ZM157.078 24.9609L156.469 24.9531C156.474 24.3698 156.555 23.8307 156.711 23.3359C156.872 22.8411 157.096 22.4115 157.383 22.0469C157.674 21.6771 158.023 21.3932 158.43 21.1953C158.836 20.9922 159.286 20.8906 159.781 20.8906C160.198 20.8906 160.573 20.9479 160.906 21.0625C161.245 21.1771 161.536 21.362 161.781 21.6172C162.026 21.8672 162.211 22.1953 162.336 22.6016C162.466 23.0026 162.531 23.4922 162.531 24.0703V29.5H160.641V24.0547C160.641 23.6484 160.581 23.3255 160.461 23.0859C160.346 22.8464 160.177 22.6745 159.953 22.5703C159.729 22.4609 159.456 22.4062 159.133 22.4062C158.794 22.4062 158.495 22.474 158.234 22.6094C157.979 22.7448 157.766 22.9297 157.594 23.1641C157.422 23.3984 157.292 23.6693 157.203 23.9766C157.12 24.2839 157.078 24.612 157.078 24.9609ZM168.664 29.6562C168.039 29.6562 167.474 29.5547 166.969 29.3516C166.469 29.1432 166.042 28.8542 165.688 28.4844C165.339 28.1146 165.07 27.6797 164.883 27.1797C164.695 26.6797 164.602 26.1406 164.602 25.5625V25.25C164.602 24.5885 164.698 23.9896 164.891 23.4531C165.083 22.9167 165.352 22.4583 165.695 22.0781C166.039 21.6927 166.445 21.3984 166.914 21.1953C167.383 20.9922 167.891 20.8906 168.438 20.8906C169.042 20.8906 169.57 20.9922 170.023 21.1953C170.477 21.3984 170.852 21.6849 171.148 22.0547C171.451 22.4193 171.674 22.8542 171.82 23.3594C171.971 23.8646 172.047 24.4219 172.047 25.0312V25.8359H165.516V24.4844H170.188V24.3359C170.177 23.9974 170.109 23.6797 169.984 23.3828C169.865 23.0859 169.68 22.8464 169.43 22.6641C169.18 22.4818 168.846 22.3906 168.43 22.3906C168.117 22.3906 167.839 22.4583 167.594 22.5938C167.354 22.724 167.154 22.9141 166.992 23.1641C166.831 23.4141 166.706 23.7161 166.617 24.0703C166.534 24.4193 166.492 24.8125 166.492 25.25V25.5625C166.492 25.9323 166.542 26.276 166.641 26.5938C166.745 26.9062 166.896 27.1797 167.094 27.4141C167.292 27.6484 167.531 27.8333 167.812 27.9688C168.094 28.099 168.414 28.1641 168.773 28.1641C169.227 28.1641 169.63 28.0729 169.984 27.8906C170.339 27.7083 170.646 27.4505 170.906 27.1172L171.898 28.0781C171.716 28.3438 171.479 28.599 171.188 28.8438C170.896 29.0833 170.539 29.2786 170.117 29.4297C169.701 29.5807 169.216 29.6562 168.664 29.6562ZM175.906 22.6562V29.5H174.023V21.0469H175.82L175.906 22.6562ZM178.492 20.9922L178.477 22.7422C178.362 22.7214 178.237 22.7057 178.102 22.6953C177.971 22.6849 177.841 22.6797 177.711 22.6797C177.388 22.6797 177.104 22.7266 176.859 22.8203C176.615 22.9089 176.409 23.0391 176.242 23.2109C176.081 23.3776 175.956 23.5807 175.867 23.8203C175.779 24.0599 175.727 24.3281 175.711 24.625L175.281 24.6562C175.281 24.125 175.333 23.6328 175.438 23.1797C175.542 22.7266 175.698 22.3281 175.906 21.9844C176.12 21.6406 176.385 21.3724 176.703 21.1797C177.026 20.987 177.398 20.8906 177.82 20.8906C177.935 20.8906 178.057 20.901 178.188 20.9219C178.323 20.9427 178.424 20.9661 178.492 20.9922ZM184.914 27.2109C184.914 27.0234 184.867 26.8542 184.773 26.7031C184.68 26.5469 184.5 26.4062 184.234 26.2812C183.974 26.1562 183.589 26.0417 183.078 25.9375C182.63 25.8385 182.219 25.7214 181.844 25.5859C181.474 25.4453 181.156 25.276 180.891 25.0781C180.625 24.8802 180.419 24.6458 180.273 24.375C180.128 24.1042 180.055 23.7917 180.055 23.4375C180.055 23.0938 180.13 22.7682 180.281 22.4609C180.432 22.1536 180.648 21.8828 180.93 21.6484C181.211 21.4141 181.552 21.2292 181.953 21.0938C182.359 20.9583 182.812 20.8906 183.312 20.8906C184.021 20.8906 184.628 21.0104 185.133 21.25C185.643 21.4844 186.034 21.8047 186.305 22.2109C186.576 22.612 186.711 23.0651 186.711 23.5703H184.828C184.828 23.3464 184.771 23.138 184.656 22.9453C184.547 22.7474 184.38 22.5885 184.156 22.4688C183.932 22.3438 183.651 22.2812 183.312 22.2812C182.99 22.2812 182.721 22.3333 182.508 22.4375C182.299 22.5365 182.143 22.6667 182.039 22.8281C181.94 22.9896 181.891 23.1667 181.891 23.3594C181.891 23.5 181.917 23.6276 181.969 23.7422C182.026 23.8516 182.12 23.9531 182.25 24.0469C182.38 24.1354 182.557 24.2188 182.781 24.2969C183.01 24.375 183.297 24.4505 183.641 24.5234C184.286 24.6589 184.841 24.8333 185.305 25.0469C185.773 25.2552 186.133 25.526 186.383 25.8594C186.633 26.1875 186.758 26.6042 186.758 27.1094C186.758 27.4844 186.677 27.8281 186.516 28.1406C186.359 28.4479 186.13 28.7161 185.828 28.9453C185.526 29.1693 185.164 29.3438 184.742 29.4688C184.326 29.5938 183.857 29.6562 183.336 29.6562C182.57 29.6562 181.922 29.5208 181.391 29.25C180.859 28.974 180.456 28.6224 180.18 28.1953C179.909 27.763 179.773 27.3151 179.773 26.8516H181.594C181.615 27.2005 181.711 27.4792 181.883 27.6875C182.06 27.8906 182.279 28.0391 182.539 28.1328C182.805 28.2214 183.078 28.2656 183.359 28.2656C183.698 28.2656 183.982 28.2214 184.211 28.1328C184.44 28.0391 184.615 27.9141 184.734 27.7578C184.854 27.5964 184.914 27.4141 184.914 27.2109Z" fill="#2563EB"/>
<path d="M219.586 23.157L215.636 19.207C215.454 19.0184 215.353 18.7658 215.355 18.5036C215.358 18.2414 215.463 17.9906 215.648 17.8052C215.834 17.6198 216.084 17.5146 216.347 17.5123C216.609 17.51 216.861 17.6108 217.05 17.793L222.707 23.45C222.8 23.5426 222.874 23.6528 222.925 23.7741C222.975 23.8955 223.001 24.0256 223.001 24.157C223.001 24.2884 222.975 24.4185 222.925 24.5398C222.874 24.6612 222.8 24.7713 222.707 24.864L217.05 30.521C216.958 30.6165 216.847 30.6927 216.725 30.7451C216.603 30.7975 216.472 30.8251 216.339 30.8262C216.207 30.8274 216.075 30.8021 215.952 30.7518C215.829 30.7015 215.717 30.6273 215.624 30.5334C215.53 30.4395 215.455 30.3278 215.405 30.2049C215.355 30.082 215.33 29.9504 215.331 29.8176C215.332 29.6848 215.359 29.5536 215.412 29.4316C215.464 29.3096 215.54 29.1992 215.636 29.107L219.586 25.157H210C209.735 25.157 209.48 25.0516 209.293 24.8641C209.105 24.6766 209 24.4222 209 24.157C209 23.8918 209.105 23.6374 209.293 23.4499C209.48 23.2623 209.735 23.157 210 23.157H219.586Z" fill="#2563EB"/>
</svg>
