<svg width="158" height="49" viewBox="0 0 158 49" fill="none" xmlns="http://www.w3.org/2000/svg">
<path d="M7.875 25.7969H9.82812C9.76562 26.5417 9.55729 27.2057 9.20312 27.7891C8.84896 28.3672 8.35156 28.8229 7.71094 29.1562C7.07031 29.4896 6.29167 29.6562 5.375 29.6562C4.67188 29.6562 4.03906 29.5312 3.47656 29.2812C2.91406 29.026 2.43229 28.6667 2.03125 28.2031C1.63021 27.7344 1.32292 27.1693 1.10938 26.5078C0.901042 25.8464 0.796875 25.1068 0.796875 24.2891V23.3438C0.796875 22.526 0.903646 21.7865 1.11719 21.125C1.33594 20.4635 1.64844 19.8984 2.05469 19.4297C2.46094 18.9557 2.94792 18.5938 3.51562 18.3438C4.08854 18.0938 4.73177 17.9688 5.44531 17.9688C6.35156 17.9688 7.11719 18.1354 7.74219 18.4688C8.36719 18.8021 8.85156 19.263 9.19531 19.8516C9.54427 20.4401 9.75781 21.1146 9.83594 21.875H7.88281C7.83073 21.3854 7.71615 20.9661 7.53906 20.6172C7.36719 20.2682 7.11198 20.0026 6.77344 19.8203C6.4349 19.6328 5.99219 19.5391 5.44531 19.5391C4.9974 19.5391 4.60677 19.6224 4.27344 19.7891C3.9401 19.9557 3.66146 20.2005 3.4375 20.5234C3.21354 20.8464 3.04427 21.2448 2.92969 21.7188C2.82031 22.1875 2.76562 22.724 2.76562 23.3281V24.2891C2.76562 24.862 2.8151 25.3828 2.91406 25.8516C3.01823 26.3151 3.17448 26.7135 3.38281 27.0469C3.59635 27.3802 3.86719 27.638 4.19531 27.8203C4.52344 28.0026 4.91667 28.0938 5.375 28.0938C5.93229 28.0938 6.38281 28.0052 6.72656 27.8281C7.07552 27.651 7.33854 27.3932 7.51562 27.0547C7.69792 26.7109 7.81771 26.2917 7.875 25.7969ZM13.7812 17.5V29.5H11.9062V17.5H13.7812ZM13.4531 24.9609L12.8438 24.9531C12.849 24.3698 12.9297 23.8307 13.0859 23.3359C13.2474 22.8411 13.4714 22.4115 13.7578 22.0469C14.0495 21.6771 14.3984 21.3932 14.8047 21.1953C15.2109 20.9922 15.6615 20.8906 16.1562 20.8906C16.5729 20.8906 16.9479 20.9479 17.2812 21.0625C17.6198 21.1771 17.9115 21.362 18.1562 21.6172C18.401 21.8672 18.5859 22.1953 18.7109 22.6016C18.8411 23.0026 18.9062 23.4922 18.9062 24.0703V29.5H17.0156V24.0547C17.0156 23.6484 16.9557 23.3255 16.8359 23.0859C16.7214 22.8464 16.5521 22.6745 16.3281 22.5703C16.1042 22.4609 15.8307 22.4062 15.5078 22.4062C15.1693 22.4062 14.8698 22.474 14.6094 22.6094C14.3542 22.7448 14.1406 22.9297 13.9688 23.1641C13.7969 23.3984 13.6667 23.6693 13.5781 23.9766C13.4948 24.2839 13.4531 24.612 13.4531 24.9609ZM25.0391 29.6562C24.4141 29.6562 23.849 29.5547 23.3438 29.3516C22.8438 29.1432 22.4167 28.8542 22.0625 28.4844C21.7135 28.1146 21.4453 27.6797 21.2578 27.1797C21.0703 26.6797 20.9766 26.1406 20.9766 25.5625V25.25C20.9766 24.5885 21.0729 23.9896 21.2656 23.4531C21.4583 22.9167 21.7266 22.4583 22.0703 22.0781C22.4141 21.6927 22.8203 21.3984 23.2891 21.1953C23.7578 20.9922 24.2656 20.8906 24.8125 20.8906C25.4167 20.8906 25.9453 20.9922 26.3984 21.1953C26.8516 21.3984 27.2266 21.6849 27.5234 22.0547C27.8255 22.4193 28.0495 22.8542 28.1953 23.3594C28.3464 23.8646 28.4219 24.4219 28.4219 25.0312V25.8359H21.8906V24.4844H26.5625V24.3359C26.5521 23.9974 26.4844 23.6797 26.3594 23.3828C26.2396 23.0859 26.0547 22.8464 25.8047 22.6641C25.5547 22.4818 25.2214 22.3906 24.8047 22.3906C24.4922 22.3906 24.2135 22.4583 23.9688 22.5938C23.7292 22.724 23.5286 22.9141 23.3672 23.1641C23.2057 23.4141 23.0807 23.7161 22.9922 24.0703C22.9089 24.4193 22.8672 24.8125 22.8672 25.25V25.5625C22.8672 25.9323 22.9167 26.276 23.0156 26.5938C23.1198 26.9062 23.2708 27.1797 23.4688 27.4141C23.6667 27.6484 23.9062 27.8333 24.1875 27.9688C24.4688 28.099 24.7891 28.1641 25.1484 28.1641C25.6016 28.1641 26.0052 28.0729 26.3594 27.8906C26.7135 27.7083 27.0208 27.4505 27.2812 27.1172L28.2734 28.0781C28.0911 28.3438 27.8542 28.599 27.5625 28.8438C27.2708 29.0833 26.9141 29.2786 26.4922 29.4297C26.0755 29.5807 25.5911 29.6562 25.0391 29.6562ZM33.8438 28.1562C34.151 28.1562 34.4271 28.0964 34.6719 27.9766C34.9219 27.8516 35.1224 27.6797 35.2734 27.4609C35.4297 27.2422 35.5156 26.9896 35.5312 26.7031H37.3047C37.2943 27.25 37.1328 27.7474 36.8203 28.1953C36.5078 28.6432 36.0938 29 35.5781 29.2656C35.0625 29.526 34.4922 29.6562 33.8672 29.6562C33.2214 29.6562 32.6589 29.5469 32.1797 29.3281C31.7005 29.1042 31.3021 28.7969 30.9844 28.4062C30.6667 28.0156 30.4271 27.5651 30.2656 27.0547C30.1094 26.5443 30.0312 25.9974 30.0312 25.4141V25.1406C30.0312 24.5573 30.1094 24.0104 30.2656 23.5C30.4271 22.9844 30.6667 22.5312 30.9844 22.1406C31.3021 21.75 31.7005 21.4453 32.1797 21.2266C32.6589 21.0026 33.2188 20.8906 33.8594 20.8906C34.5365 20.8906 35.1302 21.026 35.6406 21.2969C36.151 21.5625 36.5521 21.9349 36.8438 22.4141C37.1406 22.888 37.2943 23.4401 37.3047 24.0703H35.5312C35.5156 23.7578 35.4375 23.4766 35.2969 23.2266C35.1615 22.9714 34.9688 22.7682 34.7188 22.6172C34.474 22.4661 34.1797 22.3906 33.8359 22.3906C33.4557 22.3906 33.1406 22.4688 32.8906 22.625C32.6406 22.776 32.4453 22.9844 32.3047 23.25C32.1641 23.5104 32.0625 23.8047 32 24.1328C31.9427 24.4557 31.9141 24.7917 31.9141 25.1406V25.4141C31.9141 25.763 31.9427 26.1016 32 26.4297C32.0573 26.7578 32.1562 27.0521 32.2969 27.3125C32.4427 27.5677 32.6406 27.7734 32.8906 27.9297C33.1406 28.0807 33.4583 28.1562 33.8438 28.1562ZM41.1484 17.5V29.5H39.2578V17.5H41.1484ZM46.3984 21.0469L42.7188 25.125L40.7031 27.1875L40.2109 25.5938L41.7344 23.7109L44.125 21.0469H46.3984ZM44.5312 29.5L41.7891 25.5312L42.9766 24.2109L46.7109 29.5H44.5312ZM56.4531 21.0469V22.4219H51.6875V21.0469H56.4531ZM53.0625 18.9766H54.9453V27.1641C54.9453 27.4245 54.9818 27.625 55.0547 27.7656C55.1328 27.901 55.2396 27.9922 55.375 28.0391C55.5104 28.0859 55.6693 28.1094 55.8516 28.1094C55.9818 28.1094 56.1068 28.1016 56.2266 28.0859C56.3464 28.0703 56.4427 28.0547 56.5156 28.0391L56.5234 29.4766C56.3672 29.5234 56.1849 29.5651 55.9766 29.6016C55.7734 29.638 55.5391 29.6562 55.2734 29.6562C54.8411 29.6562 54.4583 29.5807 54.125 29.4297C53.7917 29.2734 53.5312 29.0208 53.3438 28.6719C53.1562 28.3229 53.0625 27.8594 53.0625 27.2812V18.9766ZM60.2656 17.5V29.5H58.3906V17.5H60.2656ZM59.9375 24.9609L59.3281 24.9531C59.3333 24.3698 59.4141 23.8307 59.5703 23.3359C59.7318 22.8411 59.9557 22.4115 60.2422 22.0469C60.5339 21.6771 60.8828 21.3932 61.2891 21.1953C61.6953 20.9922 62.1458 20.8906 62.6406 20.8906C63.0573 20.8906 63.4323 20.9479 63.7656 21.0625C64.1042 21.1771 64.3958 21.362 64.6406 21.6172C64.8854 21.8672 65.0703 22.1953 65.1953 22.6016C65.3255 23.0026 65.3906 23.4922 65.3906 24.0703V29.5H63.5V24.0547C63.5 23.6484 63.4401 23.3255 63.3203 23.0859C63.2057 22.8464 63.0365 22.6745 62.8125 22.5703C62.5885 22.4609 62.3151 22.4062 61.9922 22.4062C61.6536 22.4062 61.3542 22.474 61.0938 22.6094C60.8385 22.7448 60.625 22.9297 60.4531 23.1641C60.2812 23.3984 60.151 23.6693 60.0625 23.9766C59.9792 24.2839 59.9375 24.612 59.9375 24.9609ZM71.5234 29.6562C70.8984 29.6562 70.3333 29.5547 69.8281 29.3516C69.3281 29.1432 68.901 28.8542 68.5469 28.4844C68.1979 28.1146 67.9297 27.6797 67.7422 27.1797C67.5547 26.6797 67.4609 26.1406 67.4609 25.5625V25.25C67.4609 24.5885 67.5573 23.9896 67.75 23.4531C67.9427 22.9167 68.2109 22.4583 68.5547 22.0781C68.8984 21.6927 69.3047 21.3984 69.7734 21.1953C70.2422 20.9922 70.75 20.8906 71.2969 20.8906C71.901 20.8906 72.4297 20.9922 72.8828 21.1953C73.3359 21.3984 73.7109 21.6849 74.0078 22.0547C74.3099 22.4193 74.5339 22.8542 74.6797 23.3594C74.8307 23.8646 74.9062 24.4219 74.9062 25.0312V25.8359H68.375V24.4844H73.0469V24.3359C73.0365 23.9974 72.9688 23.6797 72.8438 23.3828C72.724 23.0859 72.5391 22.8464 72.2891 22.6641C72.0391 22.4818 71.7057 22.3906 71.2891 22.3906C70.9766 22.3906 70.6979 22.4583 70.4531 22.5938C70.2135 22.724 70.013 22.9141 69.8516 23.1641C69.6901 23.4141 69.5651 23.7161 69.4766 24.0703C69.3932 24.4193 69.3516 24.8125 69.3516 25.25V25.5625C69.3516 25.9323 69.401 26.276 69.5 26.5938C69.6042 26.9062 69.7552 27.1797 69.9531 27.4141C70.151 27.6484 70.3906 27.8333 70.6719 27.9688C70.9531 28.099 71.2734 28.1641 71.6328 28.1641C72.0859 28.1641 72.4896 28.0729 72.8438 27.8906C73.1979 27.7083 73.5052 27.4505 73.7656 27.1172L74.7578 28.0781C74.5755 28.3438 74.3385 28.599 74.0469 28.8438C73.7552 29.0833 73.3984 29.2786 72.9766 29.4297C72.5599 29.5807 72.0755 29.6562 71.5234 29.6562ZM85.2344 21.0469V22.4219H80.4688V21.0469H85.2344ZM81.8438 18.9766H83.7266V27.1641C83.7266 27.4245 83.763 27.625 83.8359 27.7656C83.9141 27.901 84.0208 27.9922 84.1562 28.0391C84.2917 28.0859 84.4505 28.1094 84.6328 28.1094C84.763 28.1094 84.888 28.1016 85.0078 28.0859C85.1276 28.0703 85.224 28.0547 85.2969 28.0391L85.3047 29.4766C85.1484 29.5234 84.9661 29.5651 84.7578 29.6016C84.5547 29.638 84.3203 29.6562 84.0547 29.6562C83.6224 29.6562 83.2396 29.5807 82.9062 29.4297C82.5729 29.2734 82.3125 29.0208 82.125 28.6719C81.9375 28.3229 81.8438 27.8594 81.8438 27.2812V18.9766ZM86.6406 25.3672V25.1875C86.6406 24.5781 86.7292 24.013 86.9062 23.4922C87.0833 22.9661 87.3385 22.5104 87.6719 22.125C88.0104 21.7344 88.4219 21.4323 88.9062 21.2188C89.3958 21 89.9479 20.8906 90.5625 20.8906C91.1823 20.8906 91.7344 21 92.2188 21.2188C92.7083 21.4323 93.1224 21.7344 93.4609 22.125C93.7995 22.5104 94.0573 22.9661 94.2344 23.4922C94.4115 24.013 94.5 24.5781 94.5 25.1875V25.3672C94.5 25.9766 94.4115 26.5417 94.2344 27.0625C94.0573 27.5833 93.7995 28.0391 93.4609 28.4297C93.1224 28.8151 92.7109 29.1172 92.2266 29.3359C91.7422 29.5495 91.1927 29.6562 90.5781 29.6562C89.9583 29.6562 89.4036 29.5495 88.9141 29.3359C88.4297 29.1172 88.0182 28.8151 87.6797 28.4297C87.3411 28.0391 87.0833 27.5833 86.9062 27.0625C86.7292 26.5417 86.6406 25.9766 86.6406 25.3672ZM88.5234 25.1875V25.3672C88.5234 25.7474 88.5625 26.1068 88.6406 26.4453C88.7188 26.7839 88.8411 27.0807 89.0078 27.3359C89.1745 27.5911 89.388 27.7917 89.6484 27.9375C89.9089 28.0833 90.2188 28.1562 90.5781 28.1562C90.9271 28.1562 91.2292 28.0833 91.4844 27.9375C91.7448 27.7917 91.9583 27.5911 92.125 27.3359C92.2917 27.0807 92.4141 26.7839 92.4922 26.4453C92.5755 26.1068 92.6172 25.7474 92.6172 25.3672V25.1875C92.6172 24.8125 92.5755 24.4583 92.4922 24.125C92.4141 23.7865 92.2891 23.487 92.1172 23.2266C91.9505 22.9661 91.737 22.763 91.4766 22.6172C91.2214 22.4661 90.9167 22.3906 90.5625 22.3906C90.2083 22.3906 89.901 22.4661 89.6406 22.6172C89.3854 22.763 89.1745 22.9661 89.0078 23.2266C88.8411 23.487 88.7188 23.7865 88.6406 24.125C88.5625 24.4583 88.5234 24.8125 88.5234 25.1875ZM96.2188 25.3672V25.1875C96.2188 24.5781 96.3073 24.013 96.4844 23.4922C96.6615 22.9661 96.9167 22.5104 97.25 22.125C97.5885 21.7344 98 21.4323 98.4844 21.2188C98.974 21 99.526 20.8906 100.141 20.8906C100.76 20.8906 101.312 21 101.797 21.2188C102.286 21.4323 102.701 21.7344 103.039 22.125C103.378 22.5104 103.635 22.9661 103.812 23.4922C103.99 24.013 104.078 24.5781 104.078 25.1875V25.3672C104.078 25.9766 103.99 26.5417 103.812 27.0625C103.635 27.5833 103.378 28.0391 103.039 28.4297C102.701 28.8151 102.289 29.1172 101.805 29.3359C101.32 29.5495 100.771 29.6562 100.156 29.6562C99.5365 29.6562 98.9818 29.5495 98.4922 29.3359C98.0078 29.1172 97.5964 28.8151 97.2578 28.4297C96.9193 28.0391 96.6615 27.5833 96.4844 27.0625C96.3073 26.5417 96.2188 25.9766 96.2188 25.3672ZM98.1016 25.1875V25.3672C98.1016 25.7474 98.1406 26.1068 98.2188 26.4453C98.2969 26.7839 98.4193 27.0807 98.5859 27.3359C98.7526 27.5911 98.9661 27.7917 99.2266 27.9375C99.487 28.0833 99.7969 28.1562 100.156 28.1562C100.505 28.1562 100.807 28.0833 101.062 27.9375C101.323 27.7917 101.536 27.5911 101.703 27.3359C101.87 27.0807 101.992 26.7839 102.07 26.4453C102.154 26.1068 102.195 25.7474 102.195 25.3672V25.1875C102.195 24.8125 102.154 24.4583 102.07 24.125C101.992 23.7865 101.867 23.487 101.695 23.2266C101.529 22.9661 101.315 22.763 101.055 22.6172C100.799 22.4661 100.495 22.3906 100.141 22.3906C99.7865 22.3906 99.4792 22.4661 99.2188 22.6172C98.9635 22.763 98.7526 22.9661 98.5859 23.2266C98.4193 23.487 98.2969 23.7865 98.2188 24.125C98.1406 24.4583 98.1016 24.8125 98.1016 25.1875ZM108.172 17.5V29.5H106.281V17.5H108.172ZM115.477 27.2109C115.477 27.0234 115.43 26.8542 115.336 26.7031C115.242 26.5469 115.062 26.4062 114.797 26.2812C114.536 26.1562 114.151 26.0417 113.641 25.9375C113.193 25.8385 112.781 25.7214 112.406 25.5859C112.036 25.4453 111.719 25.276 111.453 25.0781C111.188 24.8802 110.982 24.6458 110.836 24.375C110.69 24.1042 110.617 23.7917 110.617 23.4375C110.617 23.0938 110.693 22.7682 110.844 22.4609C110.995 22.1536 111.211 21.8828 111.492 21.6484C111.773 21.4141 112.115 21.2292 112.516 21.0938C112.922 20.9583 113.375 20.8906 113.875 20.8906C114.583 20.8906 115.19 21.0104 115.695 21.25C116.206 21.4844 116.596 21.8047 116.867 22.2109C117.138 22.612 117.273 23.0651 117.273 23.5703H115.391C115.391 23.3464 115.333 23.138 115.219 22.9453C115.109 22.7474 114.943 22.5885 114.719 22.4688C114.495 22.3438 114.214 22.2812 113.875 22.2812C113.552 22.2812 113.284 22.3333 113.07 22.4375C112.862 22.5365 112.706 22.6667 112.602 22.8281C112.503 22.9896 112.453 23.1667 112.453 23.3594C112.453 23.5 112.479 23.6276 112.531 23.7422C112.589 23.8516 112.682 23.9531 112.812 24.0469C112.943 24.1354 113.12 24.2188 113.344 24.2969C113.573 24.375 113.859 24.4505 114.203 24.5234C114.849 24.6589 115.404 24.8333 115.867 25.0469C116.336 25.2552 116.695 25.526 116.945 25.8594C117.195 26.1875 117.32 26.6042 117.32 27.1094C117.32 27.4844 117.24 27.8281 117.078 28.1406C116.922 28.4479 116.693 28.7161 116.391 28.9453C116.089 29.1693 115.727 29.3438 115.305 29.4688C114.888 29.5938 114.419 29.6562 113.898 29.6562C113.133 29.6562 112.484 29.5208 111.953 29.25C111.422 28.974 111.018 28.6224 110.742 28.1953C110.471 27.763 110.336 27.3151 110.336 26.8516H112.156C112.177 27.2005 112.273 27.4792 112.445 27.6875C112.622 27.8906 112.841 28.0391 113.102 28.1328C113.367 28.2214 113.641 28.2656 113.922 28.2656C114.26 28.2656 114.544 28.2214 114.773 28.1328C115.003 28.0391 115.177 27.9141 115.297 27.7578C115.417 27.5964 115.477 27.4141 115.477 27.2109Z" fill="#2563EB"/>
<path d="M149.586 23.157L145.636 19.207C145.454 19.0184 145.353 18.7658 145.355 18.5036C145.358 18.2414 145.463 17.9906 145.648 17.8052C145.834 17.6198 146.084 17.5146 146.347 17.5123C146.609 17.51 146.861 17.6108 147.05 17.793L152.707 23.45C152.8 23.5426 152.874 23.6528 152.925 23.7741C152.975 23.8955 153.001 24.0256 153.001 24.157C153.001 24.2884 152.975 24.4185 152.925 24.5398C152.874 24.6612 152.8 24.7713 152.707 24.864L147.05 30.521C146.958 30.6165 146.847 30.6927 146.725 30.7451C146.603 30.7975 146.472 30.8251 146.339 30.8262C146.207 30.8274 146.075 30.8021 145.952 30.7518C145.829 30.7015 145.717 30.6273 145.624 30.5334C145.53 30.4395 145.455 30.3278 145.405 30.2049C145.355 30.0821 145.33 29.9504 145.331 29.8176C145.332 29.6848 145.359 29.5536 145.412 29.4316C145.464 29.3096 145.54 29.1992 145.636 29.107L149.586 25.157H140C139.735 25.157 139.48 25.0516 139.293 24.8641C139.105 24.6766 139 24.4222 139 24.157C139 23.8918 139.105 23.6374 139.293 23.4499C139.48 23.2624 139.735 23.157 140 23.157H149.586Z" fill="#2563EB"/>
</svg>
