<svg width="175" height="48" viewBox="0 0 175 48" fill="none" xmlns="http://www.w3.org/2000/svg">
<path d="M3.25 17.625V29H1.28906V17.625H3.25ZM7.88281 22.2656V29H6V20.5469H7.77344L7.88281 22.2656ZM7.57812 24.4609L6.9375 24.4531C6.9375 23.8698 7.01042 23.3307 7.15625 22.8359C7.30208 22.3411 7.51562 21.9115 7.79688 21.5469C8.07812 21.1771 8.42708 20.8932 8.84375 20.6953C9.26562 20.4922 9.7526 20.3906 10.3047 20.3906C10.6901 20.3906 11.0417 20.4479 11.3594 20.5625C11.6823 20.6719 11.9609 20.8464 12.1953 21.0859C12.4349 21.3255 12.6172 21.6328 12.7422 22.0078C12.8724 22.3828 12.9375 22.8359 12.9375 23.3672V29H11.0547V23.5312C11.0547 23.1198 10.9922 22.7969 10.8672 22.5625C10.7474 22.3281 10.5729 22.1615 10.3438 22.0625C10.1198 21.9583 9.85156 21.9062 9.53906 21.9062C9.1849 21.9062 8.88281 21.974 8.63281 22.1094C8.38802 22.2448 8.1875 22.4297 8.03125 22.6641C7.875 22.8984 7.76042 23.1693 7.6875 23.4766C7.61458 23.7839 7.57812 24.112 7.57812 24.4609ZM12.8203 23.9609L11.9375 24.1562C11.9375 23.6458 12.0078 23.1641 12.1484 22.7109C12.2943 22.2526 12.5052 21.8516 12.7812 21.5078C13.0625 21.1589 13.4089 20.8854 13.8203 20.6875C14.2318 20.4896 14.7031 20.3906 15.2344 20.3906C15.6667 20.3906 16.0521 20.4505 16.3906 20.5703C16.7344 20.6849 17.026 20.8672 17.2656 21.1172C17.5052 21.3672 17.6875 21.6927 17.8125 22.0938C17.9375 22.4896 18 22.9688 18 23.5312V29H16.1094V23.5234C16.1094 23.0964 16.0469 22.7656 15.9219 22.5312C15.8021 22.2969 15.6302 22.1354 15.4062 22.0469C15.1823 21.9531 14.9141 21.9062 14.6016 21.9062C14.3099 21.9062 14.0521 21.9609 13.8281 22.0703C13.6094 22.1745 13.4245 22.3229 13.2734 22.5156C13.1224 22.7031 13.0078 22.9193 12.9297 23.1641C12.8568 23.4089 12.8203 23.6745 12.8203 23.9609ZM22.3281 22.1719V32.25H20.4453V20.5469H22.1797L22.3281 22.1719ZM27.8359 24.6953V24.8594C27.8359 25.474 27.763 26.0443 27.6172 26.5703C27.4766 27.0911 27.2656 27.5469 26.9844 27.9375C26.7083 28.3229 26.3672 28.6224 25.9609 28.8359C25.5547 29.0495 25.0859 29.1562 24.5547 29.1562C24.0286 29.1562 23.5677 29.0599 23.1719 28.8672C22.7812 28.6693 22.4505 28.3906 22.1797 28.0312C21.9089 27.6719 21.6901 27.25 21.5234 26.7656C21.362 26.276 21.2474 25.7396 21.1797 25.1562V24.5234C21.2474 23.9036 21.362 23.3411 21.5234 22.8359C21.6901 22.3307 21.9089 21.8958 22.1797 21.5312C22.4505 21.1667 22.7812 20.8854 23.1719 20.6875C23.5625 20.4896 24.0182 20.3906 24.5391 20.3906C25.0703 20.3906 25.5417 20.4948 25.9531 20.7031C26.3646 20.9062 26.7109 21.1979 26.9922 21.5781C27.2734 21.9531 27.4844 22.4062 27.625 22.9375C27.7656 23.4635 27.8359 24.0495 27.8359 24.6953ZM25.9531 24.8594V24.6953C25.9531 24.3047 25.9167 23.9427 25.8438 23.6094C25.7708 23.2708 25.6562 22.974 25.5 22.7188C25.3438 22.4635 25.1432 22.2656 24.8984 22.125C24.6589 21.9792 24.3698 21.9062 24.0312 21.9062C23.6979 21.9062 23.4115 21.9635 23.1719 22.0781C22.9323 22.1875 22.7318 22.3411 22.5703 22.5391C22.4089 22.737 22.2839 22.9688 22.1953 23.2344C22.1068 23.4948 22.0443 23.7786 22.0078 24.0859V25.6016C22.0703 25.9766 22.1771 26.3203 22.3281 26.6328C22.4792 26.9453 22.6927 27.1953 22.9688 27.3828C23.25 27.5651 23.6094 27.6562 24.0469 27.6562C24.3854 27.6562 24.6745 27.5833 24.9141 27.4375C25.1536 27.2917 25.349 27.0911 25.5 26.8359C25.6562 26.5755 25.7708 26.276 25.8438 25.9375C25.9167 25.599 25.9531 25.2396 25.9531 24.8594ZM31.8281 22.1562V29H29.9453V20.5469H31.7422L31.8281 22.1562ZM34.4141 20.4922L34.3984 22.2422C34.2839 22.2214 34.1589 22.2057 34.0234 22.1953C33.8932 22.1849 33.763 22.1797 33.6328 22.1797C33.3099 22.1797 33.026 22.2266 32.7812 22.3203C32.5365 22.4089 32.3307 22.5391 32.1641 22.7109C32.0026 22.8776 31.8776 23.0807 31.7891 23.3203C31.7005 23.5599 31.6484 23.8281 31.6328 24.125L31.2031 24.1562C31.2031 23.625 31.2552 23.1328 31.3594 22.6797C31.4635 22.2266 31.6198 21.8281 31.8281 21.4844C32.0417 21.1406 32.3073 20.8724 32.625 20.6797C32.9479 20.487 33.3203 20.3906 33.7422 20.3906C33.8568 20.3906 33.9792 20.401 34.1094 20.4219C34.2448 20.4427 34.3464 20.4661 34.4141 20.4922ZM35.5312 24.8672V24.6875C35.5312 24.0781 35.6198 23.513 35.7969 22.9922C35.974 22.4661 36.2292 22.0104 36.5625 21.625C36.901 21.2344 37.3125 20.9323 37.7969 20.7188C38.2865 20.5 38.8385 20.3906 39.4531 20.3906C40.0729 20.3906 40.625 20.5 41.1094 20.7188C41.599 20.9323 42.013 21.2344 42.3516 21.625C42.6901 22.0104 42.9479 22.4661 43.125 22.9922C43.3021 23.513 43.3906 24.0781 43.3906 24.6875V24.8672C43.3906 25.4766 43.3021 26.0417 43.125 26.5625C42.9479 27.0833 42.6901 27.5391 42.3516 27.9297C42.013 28.3151 41.6016 28.6172 41.1172 28.8359C40.6328 29.0495 40.0833 29.1562 39.4688 29.1562C38.849 29.1562 38.2943 29.0495 37.8047 28.8359C37.3203 28.6172 36.9089 28.3151 36.5703 27.9297C36.2318 27.5391 35.974 27.0833 35.7969 26.5625C35.6198 26.0417 35.5312 25.4766 35.5312 24.8672ZM37.4141 24.6875V24.8672C37.4141 25.2474 37.4531 25.6068 37.5312 25.9453C37.6094 26.2839 37.7318 26.5807 37.8984 26.8359C38.0651 27.0911 38.2786 27.2917 38.5391 27.4375C38.7995 27.5833 39.1094 27.6562 39.4688 27.6562C39.8177 27.6562 40.1198 27.5833 40.375 27.4375C40.6354 27.2917 40.849 27.0911 41.0156 26.8359C41.1823 26.5807 41.3047 26.2839 41.3828 25.9453C41.4661 25.6068 41.5078 25.2474 41.5078 24.8672V24.6875C41.5078 24.3125 41.4661 23.9583 41.3828 23.625C41.3047 23.2865 41.1797 22.987 41.0078 22.7266C40.8411 22.4661 40.6276 22.263 40.3672 22.1172C40.112 21.9661 39.8073 21.8906 39.4531 21.8906C39.099 21.8906 38.7917 21.9661 38.5312 22.1172C38.276 22.263 38.0651 22.4661 37.8984 22.7266C37.7318 22.987 37.6094 23.2865 37.5312 23.625C37.4531 23.9583 37.4141 24.3125 37.4141 24.6875ZM48.0938 27.5078L50.1641 20.5469H52.1172L49.1797 29H47.9609L48.0938 27.5078ZM46.5078 20.5469L48.6172 27.5391L48.7188 29H47.5L44.5469 20.5469H46.5078ZM57.3984 29.1562C56.7734 29.1562 56.2083 29.0547 55.7031 28.8516C55.2031 28.6432 54.776 28.3542 54.4219 27.9844C54.0729 27.6146 53.8047 27.1797 53.6172 26.6797C53.4297 26.1797 53.3359 25.6406 53.3359 25.0625V24.75C53.3359 24.0885 53.4323 23.4896 53.625 22.9531C53.8177 22.4167 54.0859 21.9583 54.4297 21.5781C54.7734 21.1927 55.1797 20.8984 55.6484 20.6953C56.1172 20.4922 56.625 20.3906 57.1719 20.3906C57.776 20.3906 58.3047 20.4922 58.7578 20.6953C59.2109 20.8984 59.5859 21.1849 59.8828 21.5547C60.1849 21.9193 60.4089 22.3542 60.5547 22.8594C60.7057 23.3646 60.7812 23.9219 60.7812 24.5312V25.3359H54.25V23.9844H58.9219V23.8359C58.9115 23.4974 58.8438 23.1797 58.7188 22.8828C58.599 22.5859 58.4141 22.3464 58.1641 22.1641C57.9141 21.9818 57.5807 21.8906 57.1641 21.8906C56.8516 21.8906 56.5729 21.9583 56.3281 22.0938C56.0885 22.224 55.888 22.4141 55.7266 22.6641C55.5651 22.9141 55.4401 23.2161 55.3516 23.5703C55.2682 23.9193 55.2266 24.3125 55.2266 24.75V25.0625C55.2266 25.4323 55.276 25.776 55.375 26.0938C55.4792 26.4062 55.6302 26.6797 55.8281 26.9141C56.026 27.1484 56.2656 27.3333 56.5469 27.4688C56.8281 27.599 57.1484 27.6641 57.5078 27.6641C57.9609 27.6641 58.3646 27.5729 58.7188 27.3906C59.0729 27.2083 59.3802 26.9505 59.6406 26.6172L60.6328 27.5781C60.4505 27.8438 60.2135 28.099 59.9219 28.3438C59.6302 28.5833 59.2734 28.7786 58.8516 28.9297C58.4349 29.0807 57.9505 29.1562 57.3984 29.1562ZM69.5312 27.125L71.4844 20.5469H72.6875L72.3594 22.5156L70.3906 29H69.3125L69.5312 27.125ZM68.3828 20.5469L69.9062 27.1562L70.0312 29H68.8281L66.5391 20.5469H68.3828ZM74.5156 27.0781L75.9922 20.5469H77.8281L75.5469 29H74.3438L74.5156 27.0781ZM72.8906 20.5469L74.8203 27.0469L75.0625 29H73.9844L71.9922 22.5078L71.6641 20.5469H72.8906ZM79.25 24.8672V24.6875C79.25 24.0781 79.3385 23.513 79.5156 22.9922C79.6927 22.4661 79.9479 22.0104 80.2812 21.625C80.6198 21.2344 81.0312 20.9323 81.5156 20.7188C82.0052 20.5 82.5573 20.3906 83.1719 20.3906C83.7917 20.3906 84.3438 20.5 84.8281 20.7188C85.3177 20.9323 85.7318 21.2344 86.0703 21.625C86.4089 22.0104 86.6667 22.4661 86.8438 22.9922C87.0208 23.513 87.1094 24.0781 87.1094 24.6875V24.8672C87.1094 25.4766 87.0208 26.0417 86.8438 26.5625C86.6667 27.0833 86.4089 27.5391 86.0703 27.9297C85.7318 28.3151 85.3203 28.6172 84.8359 28.8359C84.3516 29.0495 83.8021 29.1562 83.1875 29.1562C82.5677 29.1562 82.013 29.0495 81.5234 28.8359C81.0391 28.6172 80.6276 28.3151 80.2891 27.9297C79.9505 27.5391 79.6927 27.0833 79.5156 26.5625C79.3385 26.0417 79.25 25.4766 79.25 24.8672ZM81.1328 24.6875V24.8672C81.1328 25.2474 81.1719 25.6068 81.25 25.9453C81.3281 26.2839 81.4505 26.5807 81.6172 26.8359C81.7839 27.0911 81.9974 27.2917 82.2578 27.4375C82.5182 27.5833 82.8281 27.6562 83.1875 27.6562C83.5365 27.6562 83.8385 27.5833 84.0938 27.4375C84.3542 27.2917 84.5677 27.0911 84.7344 26.8359C84.901 26.5807 85.0234 26.2839 85.1016 25.9453C85.1849 25.6068 85.2266 25.2474 85.2266 24.8672V24.6875C85.2266 24.3125 85.1849 23.9583 85.1016 23.625C85.0234 23.2865 84.8984 22.987 84.7266 22.7266C84.5599 22.4661 84.3464 22.263 84.0859 22.1172C83.8307 21.9661 83.526 21.8906 83.1719 21.8906C82.8177 21.8906 82.5104 21.9661 82.25 22.1172C81.9948 22.263 81.7839 22.4661 81.6172 22.7266C81.4505 22.987 81.3281 23.2865 81.25 23.625C81.1719 23.9583 81.1328 24.3125 81.1328 24.6875ZM91.0781 22.1562V29H89.1953V20.5469H90.9922L91.0781 22.1562ZM93.6641 20.4922L93.6484 22.2422C93.5339 22.2214 93.4089 22.2057 93.2734 22.1953C93.1432 22.1849 93.013 22.1797 92.8828 22.1797C92.5599 22.1797 92.276 22.2266 92.0312 22.3203C91.7865 22.4089 91.5807 22.5391 91.4141 22.7109C91.2526 22.8776 91.1276 23.0807 91.0391 23.3203C90.9505 23.5599 90.8984 23.8281 90.8828 24.125L90.4531 24.1562C90.4531 23.625 90.5052 23.1328 90.6094 22.6797C90.7135 22.2266 90.8698 21.8281 91.0781 21.4844C91.2917 21.1406 91.5573 20.8724 91.875 20.6797C92.1979 20.487 92.5703 20.3906 92.9922 20.3906C93.1068 20.3906 93.2292 20.401 93.3594 20.4219C93.4948 20.4427 93.5964 20.4661 93.6641 20.4922ZM97.2422 17V29H95.3516V17H97.2422ZM102.492 20.5469L98.8125 24.625L96.7969 26.6875L96.3047 25.0938L97.8281 23.2109L100.219 20.5469H102.492ZM100.625 29L97.8828 25.0312L99.0703 23.7109L102.805 29H100.625ZM106.734 29H104.852V19.7891C104.852 19.1484 104.977 18.6094 105.227 18.1719C105.482 17.7344 105.849 17.4036 106.328 17.1797C106.807 16.9505 107.385 16.8359 108.062 16.8359C108.333 16.8359 108.672 16.8542 109.078 16.8906C109.49 16.9271 109.917 16.974 110.359 17.0312C110.802 17.0833 111.208 17.138 111.578 17.1953L110.766 18.6406C110.281 18.5521 109.831 18.4844 109.414 18.4375C108.997 18.3854 108.62 18.3594 108.281 18.3594C107.948 18.3594 107.667 18.4167 107.438 18.5312C107.208 18.6406 107.034 18.8021 106.914 19.0156C106.794 19.224 106.734 19.4818 106.734 19.7891V29ZM109.695 29V17.1953H111.578V29H109.695ZM108.477 20.5469V21.9219H103.555V20.5469H108.477ZM113.812 24.8672V24.6875C113.812 24.0781 113.901 23.513 114.078 22.9922C114.255 22.4661 114.51 22.0104 114.844 21.625C115.182 21.2344 115.594 20.9323 116.078 20.7188C116.568 20.5 117.12 20.3906 117.734 20.3906C118.354 20.3906 118.906 20.5 119.391 20.7188C119.88 20.9323 120.294 21.2344 120.633 21.625C120.971 22.0104 121.229 22.4661 121.406 22.9922C121.583 23.513 121.672 24.0781 121.672 24.6875V24.8672C121.672 25.4766 121.583 26.0417 121.406 26.5625C121.229 27.0833 120.971 27.5391 120.633 27.9297C120.294 28.3151 119.883 28.6172 119.398 28.8359C118.914 29.0495 118.365 29.1562 117.75 29.1562C117.13 29.1562 116.576 29.0495 116.086 28.8359C115.602 28.6172 115.19 28.3151 114.852 27.9297C114.513 27.5391 114.255 27.0833 114.078 26.5625C113.901 26.0417 113.812 25.4766 113.812 24.8672ZM115.695 24.6875V24.8672C115.695 25.2474 115.734 25.6068 115.812 25.9453C115.891 26.2839 116.013 26.5807 116.18 26.8359C116.346 27.0911 116.56 27.2917 116.82 27.4375C117.081 27.5833 117.391 27.6562 117.75 27.6562C118.099 27.6562 118.401 27.5833 118.656 27.4375C118.917 27.2917 119.13 27.0911 119.297 26.8359C119.464 26.5807 119.586 26.2839 119.664 25.9453C119.747 25.6068 119.789 25.2474 119.789 24.8672V24.6875C119.789 24.3125 119.747 23.9583 119.664 23.625C119.586 23.2865 119.461 22.987 119.289 22.7266C119.122 22.4661 118.909 22.263 118.648 22.1172C118.393 21.9661 118.089 21.8906 117.734 21.8906C117.38 21.8906 117.073 21.9661 116.812 22.1172C116.557 22.263 116.346 22.4661 116.18 22.7266C116.013 22.987 115.891 23.2865 115.812 23.625C115.734 23.9583 115.695 24.3125 115.695 24.6875ZM126.047 27.125L128 20.5469H129.203L128.875 22.5156L126.906 29H125.828L126.047 27.125ZM124.898 20.5469L126.422 27.1562L126.547 29H125.344L123.055 20.5469H124.898ZM131.031 27.0781L132.508 20.5469H134.344L132.062 29H130.859L131.031 27.0781ZM129.406 20.5469L131.336 27.0469L131.578 29H130.5L128.508 22.5078L128.18 20.5469H129.406Z" fill="white"/>
<path d="M166.586 22.657L162.636 18.707C162.454 18.5184 162.353 18.2658 162.355 18.0036C162.358 17.7414 162.463 17.4906 162.648 17.3052C162.834 17.1198 163.084 17.0146 163.347 17.0123C163.609 17.0101 163.861 17.1109 164.05 17.293L169.707 22.95C169.8 23.0427 169.874 23.1528 169.925 23.2742C169.975 23.3955 170.001 23.5256 170.001 23.657C170.001 23.7884 169.975 23.9185 169.925 24.0399C169.874 24.1612 169.8 24.2714 169.707 24.364L164.05 30.021C163.958 30.1165 163.847 30.1927 163.725 30.2451C163.603 30.2975 163.472 30.3251 163.339 30.3263C163.207 30.3274 163.075 30.3021 162.952 30.2518C162.829 30.2016 162.717 30.1273 162.624 30.0334C162.53 29.9395 162.455 29.8279 162.405 29.705C162.355 29.5821 162.33 29.4504 162.331 29.3176C162.332 29.1848 162.359 29.0536 162.412 28.9316C162.464 28.8096 162.54 28.6993 162.636 28.607L166.586 24.657H157C156.735 24.657 156.48 24.5517 156.293 24.3641C156.105 24.1766 156 23.9222 156 23.657C156 23.3918 156.105 23.1374 156.293 22.9499C156.48 22.7624 156.735 22.657 157 22.657H166.586Z" fill="white"/>
</svg>
