<svg width="23" height="24" viewBox="0 0 23 24" fill="none" xmlns="http://www.w3.org/2000/svg">
<path d="M9.95157 22.5977L0.490431 4.09535C0.274156 3.67207 0.17899 3.19728 0.215415 2.72335C0.251839 2.24941 0.418449 1.79475 0.696858 1.40949C0.975276 1.02423 1.35468 0.723344 1.79323 0.540012C2.23179 0.35668 2.71246 0.298028 3.18223 0.370529L20.7161 3.07664C21.1197 3.13895 21.5028 3.29619 21.834 3.53542C22.165 3.77467 22.4345 4.08907 22.6205 4.45279C22.8063 4.81651 22.9032 5.21915 22.9032 5.62762C22.9031 6.03608 22.806 6.43871 22.6201 6.80236L14.5429 22.5986C14.326 23.0207 13.997 23.3748 13.5919 23.622C13.1868 23.8692 12.7215 23.9999 12.247 23.9998C11.7724 23.9997 11.3071 23.8689 10.9022 23.6215C10.4972 23.3741 10.1683 23.0199 9.95157 22.5977Z" fill="#94A3B8"/>
</svg>
